<svg xmlns="http://www.w3.org/2000/svg" viewBox="0 0 100 100" preserveAspectRatio="xMidYMid" width="142" height="142" style="shape-rendering: auto; display: block; background: rgb(255, 255, 255);" xmlns:xlink="http://www.w3.org/1999/xlink"><g><g transform="rotate(0 50 50)">
  <rect x="46" y="24" rx="4" ry="5" width="8" height="10" fill="#3f96ef">
    <animate attributeName="opacity" values="1;0" keyTimes="0;1" dur="2s" begin="-1.8461538461538463s" repeatCount="indefinite"></animate>
  </rect>
</g><g transform="rotate(27.692307692307693 50 50)">
  <rect x="46" y="24" rx="4" ry="5" width="8" height="10" fill="#3f96ef">
    <animate attributeName="opacity" values="1;0" keyTimes="0;1" dur="2s" begin="-1.6923076923076923s" repeatCount="indefinite"></animate>
  </rect>
</g><g transform="rotate(55.38461538461539 50 50)">
  <rect x="46" y="24" rx="4" ry="5" width="8" height="10" fill="#3f96ef">
    <animate attributeName="opacity" values="1;0" keyTimes="0;1" dur="2s" begin="-1.5384615384615385s" repeatCount="indefinite"></animate>
  </rect>
</g><g transform="rotate(83.07692307692308 50 50)">
  <rect x="46" y="24" rx="4" ry="5" width="8" height="10" fill="#3f96ef">
    <animate attributeName="opacity" values="1;0" keyTimes="0;1" dur="2s" begin="-1.3846153846153846s" repeatCount="indefinite"></animate>
  </rect>
</g><g transform="rotate(110.76923076923077 50 50)">
  <rect x="46" y="24" rx="4" ry="5" width="8" height="10" fill="#3f96ef">
    <animate attributeName="opacity" values="1;0" keyTimes="0;1" dur="2s" begin="-1.2307692307692308s" repeatCount="indefinite"></animate>
  </rect>
</g><g transform="rotate(138.46153846153845 50 50)">
  <rect x="46" y="24" rx="4" ry="5" width="8" height="10" fill="#3f96ef">
    <animate attributeName="opacity" values="1;0" keyTimes="0;1" dur="2s" begin="-1.0769230769230769s" repeatCount="indefinite"></animate>
  </rect>
</g><g transform="rotate(166.15384615384616 50 50)">
  <rect x="46" y="24" rx="4" ry="5" width="8" height="10" fill="#3f96ef">
    <animate attributeName="opacity" values="1;0" keyTimes="0;1" dur="2s" begin="-0.9230769230769231s" repeatCount="indefinite"></animate>
  </rect>
</g><g transform="rotate(193.84615384615384 50 50)">
  <rect x="46" y="24" rx="4" ry="5" width="8" height="10" fill="#3f96ef">
    <animate attributeName="opacity" values="1;0" keyTimes="0;1" dur="2s" begin="-0.7692307692307693s" repeatCount="indefinite"></animate>
  </rect>
</g><g transform="rotate(221.53846153846155 50 50)">
  <rect x="46" y="24" rx="4" ry="5" width="8" height="10" fill="#3f96ef">
    <animate attributeName="opacity" values="1;0" keyTimes="0;1" dur="2s" begin="-0.6153846153846154s" repeatCount="indefinite"></animate>
  </rect>
</g><g transform="rotate(249.23076923076923 50 50)">
  <rect x="46" y="24" rx="4" ry="5" width="8" height="10" fill="#3f96ef">
    <animate attributeName="opacity" values="1;0" keyTimes="0;1" dur="2s" begin="-0.46153846153846156s" repeatCount="indefinite"></animate>
  </rect>
</g><g transform="rotate(276.9230769230769 50 50)">
  <rect x="46" y="24" rx="4" ry="5" width="8" height="10" fill="#3f96ef">
    <animate attributeName="opacity" values="1;0" keyTimes="0;1" dur="2s" begin="-0.3076923076923077s" repeatCount="indefinite"></animate>
  </rect>
</g><g transform="rotate(304.61538461538464 50 50)">
  <rect x="46" y="24" rx="4" ry="5" width="8" height="10" fill="#3f96ef">
    <animate attributeName="opacity" values="1;0" keyTimes="0;1" dur="2s" begin="-0.15384615384615385s" repeatCount="indefinite"></animate>
  </rect>
</g><g transform="rotate(332.3076923076923 50 50)">
  <rect x="46" y="24" rx="4" ry="5" width="8" height="10" fill="#3f96ef">
    <animate attributeName="opacity" values="1;0" keyTimes="0;1" dur="2s" begin="0s" repeatCount="indefinite"></animate>
  </rect>
</g><g></g></g><!-- [ldio] generated by https://loading.io --></svg>